<svg width="18" height="18" viewBox="0 0 18 18" fill="none" xmlns="http://www.w3.org/2000/svg">
<path d="M9 16.4883C9.80859 16.4883 10.5117 15.8203 10.5117 15.0117H7.48828C7.48828 15.8203 8.19141 16.4883 9 16.4883ZM13.5 11.9883V8.26172C13.5 5.94141 12.2695 4.00781 10.125 3.51562V2.98828C10.125 2.39062 9.63281 1.86328 9 1.86328C8.36719 1.86328 7.875 2.39062 7.875 2.98828V3.51562C5.73047 4.00781 4.5 5.94141 4.5 8.26172V11.9883L2.98828 13.5V14.2383H15.0117V13.5L13.5 11.9883ZM11.9883 12.7617H6.01172V8.26172C6.01172 6.39844 7.13672 4.88672 9 4.88672C10.8633 4.88672 11.9883 6.39844 11.9883 8.26172V12.7617Z" fill="#A1A1AA"/>
</svg>
