<svg width="20" height="20" viewBox="0 0 20 20" fill="none" xmlns="http://www.w3.org/2000/svg">
<path d="M12.9297 11.6797H12.2656L12.0312 11.4453C12.8516 10.5078 13.3203 9.25781 13.3203 7.92969C13.3203 4.92188 10.8984 2.5 7.92969 2.5C4.92188 2.5 2.5 4.92188 2.5 7.92969C2.5 10.8984 4.92188 13.3203 7.92969 13.3203C9.25781 13.3203 10.5078 12.8516 11.4453 12.0312L11.6797 12.2656V12.9297L15.8203 17.0703L17.0703 15.8203L12.9297 11.6797ZM7.92969 11.6797C5.85938 11.6797 4.17969 10 4.17969 7.92969C4.17969 5.85938 5.85938 4.17969 7.92969 4.17969C10 4.17969 11.6797 5.85938 11.6797 7.92969C11.6797 10 10 11.6797 7.92969 11.6797Z" fill="#A1A1AA"/>
</svg>
