<svg width="18" height="18" viewBox="0 0 18 18" fill="none" xmlns="http://www.w3.org/2000/svg">
<path d="M8.26172 5.23828H9.73828V6.75H8.26172V5.23828ZM8.26172 8.26172H9.73828V12.7617H8.26172V8.26172ZM9 1.51172C4.85156 1.51172 1.51172 4.85156 1.51172 9C1.51172 13.1484 4.85156 16.4883 9 16.4883C13.1484 16.4883 16.4883 13.1484 16.4883 9C16.4883 4.85156 13.1484 1.51172 9 1.51172ZM9 15.0117C5.69531 15.0117 2.98828 12.3047 2.98828 9C2.98828 5.69531 5.69531 2.98828 9 2.98828C12.3047 2.98828 15.0117 5.69531 15.0117 9C15.0117 12.3047 12.3047 15.0117 9 15.0117Z" fill="#A1A1AA"/>
</svg>
