<svg width="20" height="20" viewBox="0 0 20 20" fill="none" xmlns="http://www.w3.org/2000/svg">
<path d="M2.5 10.8203H4.17969V9.17969H2.5V10.8203ZM2.5 14.1797H4.17969V12.5H2.5V14.1797ZM2.5 7.5H4.17969V5.82031H2.5V7.5ZM5.82031 10.8203H17.5V9.17969H5.82031V10.8203ZM5.82031 14.1797H17.5V12.5H5.82031V14.1797ZM5.82031 5.82031V7.5H17.5V5.82031H5.82031ZM2.5 10.8203H4.17969V9.17969H2.5V10.8203ZM2.5 14.1797H4.17969V12.5H2.5V14.1797ZM2.5 7.5H4.17969V5.82031H2.5V7.5ZM5.82031 10.8203H17.5V9.17969H5.82031V10.8203ZM5.82031 14.1797H17.5V12.5H5.82031V14.1797ZM5.82031 5.82031V7.5H17.5V5.82031H5.82031Z" fill="#A1A1AA"/>
</svg>
