<svg width="18" height="18" viewBox="0 0 18 18" fill="none" xmlns="http://www.w3.org/2000/svg">
<path d="M14.5898 9.73828C14.5898 9.49219 14.625 9.24609 14.625 9C14.625 8.75391 14.5898 8.50781 14.5898 8.26172L16.1719 7.03125C16.3125 6.92578 16.3477 6.71484 16.2422 6.53906L14.7305 3.9375C14.6602 3.83203 14.5547 3.76172 14.4141 3.76172C14.3789 3.76172 14.3086 3.76172 14.2734 3.79688L12.4102 4.53516C12.0234 4.25391 11.6016 3.97266 11.1445 3.79688L10.8633 1.82812C10.8281 1.65234 10.6875 1.51172 10.5117 1.51172H7.48828C7.3125 1.51172 7.17187 1.65234 7.13672 1.82812L6.85547 3.79688C6.39844 3.97266 5.97656 4.25391 5.58984 4.53516L3.72656 3.79688C3.65625 3.76172 3.62109 3.76172 3.58594 3.76172C3.44531 3.76172 3.33984 3.83203 3.26953 3.9375L1.75781 6.53906C1.65234 6.71484 1.6875 6.92578 1.82812 7.03125L3.41016 8.26172C3.41016 8.50781 3.375 8.75391 3.375 9C3.375 9.24609 3.41016 9.49219 3.41016 9.73828L1.82812 10.9688C1.6875 11.0742 1.65234 11.2852 1.75781 11.4609L3.26953 14.0625C3.33984 14.168 3.44531 14.2383 3.58594 14.2383C3.62109 14.2383 3.69141 14.2383 3.72656 14.2031L5.58984 13.4648C5.97656 13.7461 6.39844 14.0273 6.85547 14.2031L7.13672 16.1719C7.17187 16.3477 7.3125 16.4883 7.48828 16.4883H10.5117C10.6875 16.4883 10.8281 16.3477 10.8633 16.1719L11.1445 14.2031C11.6016 14.0273 12.0234 13.7461 12.4102 13.4648L14.2734 14.2031C14.3437 14.2383 14.3789 14.2383 14.4141 14.2383C14.5547 14.2383 14.6602 14.168 14.7305 14.0625L16.2422 11.4609C16.3477 11.2852 16.3125 11.0742 16.1719 10.9688L14.5898 9.73828ZM13.0781 8.4375C13.1133 8.68359 13.1133 8.85938 13.1133 9C13.1133 9.14062 13.1133 9.31641 13.0781 9.5625L12.9727 10.4062L13.6406 10.9336L14.4492 11.5664L13.9219 12.4453L12.9727 12.0586L12.1992 11.7773L11.5312 12.2695C11.2148 12.5156 10.8984 12.6914 10.582 12.832L9.80859 13.1484L9.66797 13.9922L9.52734 15.0117H8.47266L8.33203 13.9922L8.22656 13.1484L7.41797 12.832C7.10156 12.6914 6.78516 12.5156 6.50391 12.2695L5.80078 11.7773L5.02734 12.0938L4.07812 12.4805L3.55078 11.5664L4.35937 10.9336L5.02734 10.4062L4.92187 9.5625C4.88672 9.31641 4.88672 9.14062 4.88672 9C4.88672 8.85938 4.88672 8.68359 4.92187 8.4375L5.02734 7.59375L4.35937 7.06641L3.55078 6.43359L4.07812 5.55469L5.02734 5.94141L5.80078 6.22266L6.46875 5.73047C6.78516 5.48438 7.10156 5.30859 7.41797 5.16797L8.19141 4.85156L8.33203 4.00781L8.47266 2.98828H9.52734L9.66797 4.00781L9.77344 4.85156L10.582 5.16797C10.8984 5.30859 11.2148 5.48438 11.4961 5.73047L12.1641 6.22266L12.9727 5.90625L13.9219 5.51953L14.4492 6.43359L13.6406 7.06641L12.9727 7.59375L13.0781 8.4375ZM9 6.01172C7.34766 6.01172 6.01172 7.34766 6.01172 9C6.01172 10.6523 7.34766 11.9883 9 11.9883C10.6523 11.9883 11.9883 10.6523 11.9883 9C11.9883 7.34766 10.6523 6.01172 9 6.01172ZM9 10.5117C8.19141 10.5117 7.48828 9.80859 7.48828 9C7.48828 8.19141 8.19141 7.48828 9 7.48828C9.80859 7.48828 10.5117 8.19141 10.5117 9C10.5117 9.80859 9.80859 10.5117 9 10.5117Z" fill="#A1A1AA"/>
</svg>
