<svg width="24" height="24" viewBox="0 0 24 24" fill="none" xmlns="http://www.w3.org/2000/svg">
<path d="M12 14.0156C13.6406 14.0156 15 12.6562 15 11.0156V5.01562C15 3.32812 13.6406 2.01562 12 2.01562C10.3594 2.01562 9 3.32812 9 5.01562V11.0156C9 12.6562 10.3594 14.0156 12 14.0156ZM17.0156 11.0156C17.0156 13.7812 14.7656 15.9844 12 15.9844C9.23438 15.9844 6.98438 13.7812 6.98438 11.0156H5.01562C5.01562 14.5312 7.59375 17.4375 11.0156 17.9062V21H12.9844V17.9062C16.4062 17.4375 18.9844 14.5312 18.9844 11.0156H17.0156Z" fill="#FAFAFA"/>
</svg>
