<svg width="18" height="22" viewBox="0 0 18 22" fill="none" xmlns="http://www.w3.org/2000/svg">
<path d="M3.825 14.0375C3.55 13.5625 3.34375 13.075 3.20625 12.575C3.06875 12.075 3 11.5625 3 11.0375C3 9.3625 3.58125 7.9375 4.74375 6.7625C5.90625 5.5875 7.325 5 9 5H9.13125L7.93125 3.8L8.98125 2.75L11.9813 5.75L8.98125 8.75L7.93125 7.7L9.13125 6.5H9C7.75 6.5 6.6875 6.94062 5.8125 7.82187C4.9375 8.70312 4.5 9.775 4.5 11.0375C4.5 11.3625 4.5375 11.6812 4.6125 11.9937C4.6875 12.3062 4.8 12.6125 4.95 12.9125L3.825 14.0375ZM9.01875 19.25L6.01875 16.25L9.01875 13.25L10.0688 14.3L8.86875 15.5H9C10.25 15.5 11.3125 15.0594 12.1875 14.1781C13.0625 13.2969 13.5 12.225 13.5 10.9625C13.5 10.6375 13.4625 10.3187 13.3875 10.0062C13.3125 9.69375 13.2 9.3875 13.05 9.0875L14.175 7.9625C14.45 8.4375 14.6562 8.925 14.7938 9.425C14.9313 9.925 15 10.4375 15 10.9625C15 12.6375 14.4188 14.0625 13.2563 15.2375C12.0938 16.4125 10.675 17 9 17H8.86875L10.0688 18.2L9.01875 19.25Z" fill="#A1A1AA"/>
</svg>
