<svg width="18" height="22" viewBox="0 0 18 22" fill="none" xmlns="http://www.w3.org/2000/svg">
<path d="M9 17.75C7.1125 17.75 5.51562 17.4594 4.20938 16.8781C2.90313 16.2969 2.25 15.5875 2.25 14.75V7.25C2.25 6.425 2.90937 5.71875 4.22813 5.13125C5.54688 4.54375 7.1375 4.25 9 4.25C10.8625 4.25 12.4531 4.54375 13.7719 5.13125C15.0906 5.71875 15.75 6.425 15.75 7.25V14.75C15.75 15.5875 15.0969 16.2969 13.7906 16.8781C12.4844 17.4594 10.8875 17.75 9 17.75ZM9 8.76875C10.1125 8.76875 11.2313 8.60938 12.3563 8.29062C13.4813 7.97187 14.1125 7.63125 14.25 7.26875C14.1125 6.90625 13.4844 6.5625 12.3656 6.2375C11.2469 5.9125 10.125 5.75 9 5.75C7.8625 5.75 6.74688 5.90937 5.65313 6.22812C4.55938 6.54688 3.925 6.89375 3.75 7.26875C3.925 7.64375 4.55938 7.9875 5.65313 8.3C6.74688 8.6125 7.8625 8.76875 9 8.76875ZM9 12.5C9.525 12.5 10.0313 12.475 10.5188 12.425C11.0063 12.375 11.4719 12.3031 11.9156 12.2094C12.3594 12.1156 12.7781 12 13.1719 11.8625C13.5656 11.725 13.925 11.5687 14.25 11.3937V9.14375C13.925 9.31875 13.5656 9.475 13.1719 9.6125C12.7781 9.75 12.3594 9.86562 11.9156 9.95937C11.4719 10.0531 11.0063 10.125 10.5188 10.175C10.0313 10.225 9.525 10.25 9 10.25C8.475 10.25 7.9625 10.225 7.4625 10.175C6.9625 10.125 6.49063 10.0531 6.04688 9.95937C5.60313 9.86562 5.1875 9.75 4.8 9.6125C4.4125 9.475 4.0625 9.31875 3.75 9.14375V11.3937C4.0625 11.5687 4.4125 11.725 4.8 11.8625C5.1875 12 5.60313 12.1156 6.04688 12.2094C6.49063 12.3031 6.9625 12.375 7.4625 12.425C7.9625 12.475 8.475 12.5 9 12.5ZM9 16.25C9.575 16.25 10.1594 16.2062 10.7531 16.1187C11.3469 16.0312 11.8938 15.9156 12.3938 15.7719C12.8938 15.6281 13.3125 15.4656 13.65 15.2844C13.9875 15.1031 14.1875 14.9187 14.25 14.7312V12.8937C13.925 13.0687 13.5656 13.225 13.1719 13.3625C12.7781 13.5 12.3594 13.6156 11.9156 13.7094C11.4719 13.8031 11.0063 13.875 10.5188 13.925C10.0313 13.975 9.525 14 9 14C8.475 14 7.9625 13.975 7.4625 13.925C6.9625 13.875 6.49063 13.8031 6.04688 13.7094C5.60313 13.6156 5.1875 13.5 4.8 13.3625C4.4125 13.225 4.0625 13.0687 3.75 12.8937V14.75C3.8125 14.9375 4.00938 15.1187 4.34063 15.2937C4.67188 15.4688 5.0875 15.6281 5.5875 15.7719C6.0875 15.9156 6.6375 16.0312 7.2375 16.1187C7.8375 16.2062 8.425 16.25 9 16.25Z" fill="#A1A1AA"/>
</svg>
