<svg width="18" height="22" viewBox="0 0 18 22" fill="none" xmlns="http://www.w3.org/2000/svg">
<path d="M3.75 17.75C3.3375 17.75 2.98438 17.6031 2.69063 17.3094C2.39687 17.0156 2.25 16.6625 2.25 16.25V5.75C2.25 5.3375 2.39687 4.98437 2.69063 4.69062C2.98438 4.39687 3.3375 4.25 3.75 4.25H14.25C14.6625 4.25 15.0156 4.39687 15.3094 4.69062C15.6031 4.98437 15.75 5.3375 15.75 5.75V16.25C15.75 16.6625 15.6031 17.0156 15.3094 17.3094C15.0156 17.6031 14.6625 17.75 14.25 17.75H3.75ZM3.75 16.25H14.25V5.75H3.75V16.25Z" fill="#A1A1AA"/>
</svg>
