<svg width="18" height="22" viewBox="0 0 18 22" fill="none" xmlns="http://www.w3.org/2000/svg">
<path d="M6.93749 18.5L6.63749 16.1C6.47499 16.0375 6.32187 15.9625 6.17812 15.875C6.03437 15.7875 5.89374 15.6937 5.75624 15.5938L3.52499 16.5312L1.46249 12.9688L3.39374 11.5062C3.38124 11.4187 3.37499 11.3344 3.37499 11.2531C3.37499 11.1719 3.37499 11.0875 3.37499 11C3.37499 10.9125 3.37499 10.8281 3.37499 10.7469C3.37499 10.6656 3.38124 10.5812 3.39374 10.4937L1.46249 9.03125L3.52499 5.46875L5.75624 6.40625C5.89374 6.30625 6.03749 6.2125 6.18749 6.125C6.33749 6.0375 6.48749 5.9625 6.63749 5.9L6.93749 3.5H11.0625L11.3625 5.9C11.525 5.9625 11.6781 6.0375 11.8219 6.125C11.9656 6.2125 12.1062 6.30625 12.2437 6.40625L14.475 5.46875L16.5375 9.03125L14.6062 10.4937C14.6187 10.5812 14.625 10.6656 14.625 10.7469C14.625 10.8281 14.625 10.9125 14.625 11C14.625 11.0875 14.625 11.1719 14.625 11.2531C14.625 11.3344 14.6125 11.4187 14.5875 11.5062L16.5187 12.9688L14.4562 16.5312L12.2437 15.5938C12.1062 15.6937 11.9625 15.7875 11.8125 15.875C11.6625 15.9625 11.5125 16.0375 11.3625 16.1L11.0625 18.5H6.93749ZM8.24999 17H9.73124L9.99374 15.0125C10.3812 14.9125 10.7406 14.7656 11.0719 14.5719C11.4031 14.3781 11.7062 14.1437 11.9812 13.8687L13.8375 14.6375L14.5687 13.3625L12.9562 12.1437C13.0187 11.9687 13.0625 11.7844 13.0875 11.5906C13.1125 11.3969 13.125 11.2 13.125 11C13.125 10.8 13.1125 10.6031 13.0875 10.4094C13.0625 10.2156 13.0187 10.0312 12.9562 9.85625L14.5687 8.6375L13.8375 7.3625L11.9812 8.15C11.7062 7.8625 11.4031 7.62187 11.0719 7.42812C10.7406 7.23438 10.3812 7.0875 9.99374 6.9875L9.74999 5H8.26874L8.00624 6.9875C7.61874 7.0875 7.25937 7.23438 6.92812 7.42812C6.59687 7.62187 6.29374 7.85625 6.01874 8.13125L4.16249 7.3625L3.43124 8.6375L5.04374 9.8375C4.98124 10.025 4.93749 10.2125 4.91249 10.4C4.88749 10.5875 4.87499 10.7875 4.87499 11C4.87499 11.2 4.88749 11.3937 4.91249 11.5812C4.93749 11.7687 4.98124 11.9562 5.04374 12.1437L3.43124 13.3625L4.16249 14.6375L6.01874 13.85C6.29374 14.1375 6.59687 14.3781 6.92812 14.5719C7.25937 14.7656 7.61874 14.9125 8.00624 15.0125L8.24999 17ZM9.03749 13.625C9.76249 13.625 10.3812 13.3687 10.8937 12.8562C11.4062 12.3437 11.6625 11.725 11.6625 11C11.6625 10.275 11.4062 9.65625 10.8937 9.14375C10.3812 8.63125 9.76249 8.375 9.03749 8.375C8.29999 8.375 7.67812 8.63125 7.17187 9.14375C6.66562 9.65625 6.41249 10.275 6.41249 11C6.41249 11.725 6.66562 12.3437 7.17187 12.8562C7.67812 13.3687 8.29999 13.625 9.03749 13.625Z" fill="#A1A1AA"/>
</svg>
