<svg width="18" height="18" viewBox="0 0 18 18" fill="none" xmlns="http://www.w3.org/2000/svg">
<path d="M14.5899 9.73828C14.5899 9.49219 14.625 9.24609 14.625 9C14.625 8.75391 14.5899 8.50781 14.5899 8.26172L16.1719 7.03125C16.3125 6.92578 16.3477 6.71484 16.2422 6.53906L14.7305 3.9375C14.6602 3.83203 14.5547 3.76172 14.4141 3.76172C14.379 3.76172 14.3086 3.76172 14.2735 3.79688L12.4102 4.53516C12.0235 4.25391 11.6016 3.97266 11.1446 3.79688L10.8633 1.82812C10.8282 1.65234 10.6875 1.51172 10.5118 1.51172H7.48833C7.31255 1.51172 7.17192 1.65234 7.13676 1.82812L6.85551 3.79688C6.39848 3.97266 5.97661 4.25391 5.58989 4.53516L3.72661 3.79688C3.65629 3.76172 3.62114 3.76172 3.58598 3.76172C3.44536 3.76172 3.33989 3.83203 3.26958 3.9375L1.75786 6.53906C1.65239 6.71484 1.68754 6.92578 1.82817 7.03125L3.4102 8.26172C3.4102 8.50781 3.37504 8.75391 3.37504 9C3.37504 9.24609 3.4102 9.49219 3.4102 9.73828L1.82817 10.9688C1.68754 11.0742 1.65239 11.2852 1.75786 11.4609L3.26958 14.0625C3.33989 14.168 3.44536 14.2383 3.58598 14.2383C3.62114 14.2383 3.69145 14.2383 3.72661 14.2031L5.58989 13.4648C5.97661 13.7461 6.39848 14.0273 6.85551 14.2031L7.13676 16.1719C7.17192 16.3477 7.31255 16.4883 7.48833 16.4883H10.5118C10.6875 16.4883 10.8282 16.3477 10.8633 16.1719L11.1446 14.2031C11.6016 14.0273 12.0235 13.7461 12.4102 13.4648L14.2735 14.2031C14.3438 14.2383 14.379 14.2383 14.4141 14.2383C14.5547 14.2383 14.6602 14.168 14.7305 14.0625L16.2422 11.4609C16.3477 11.2852 16.3125 11.0742 16.1719 10.9688L14.5899 9.73828ZM13.0782 8.4375C13.1133 8.68359 13.1133 8.85938 13.1133 9C13.1133 9.14062 13.1133 9.31641 13.0782 9.5625L12.9727 10.4062L13.6407 10.9336L14.4493 11.5664L13.9219 12.4453L12.9727 12.0586L12.1993 11.7773L11.5313 12.2695C11.2149 12.5156 10.8985 12.6914 10.5821 12.832L9.80864 13.1484L9.66801 13.9922L9.52739 15.0117H8.4727L8.33208 13.9922L8.22661 13.1484L7.41801 12.832C7.10161 12.6914 6.7852 12.5156 6.50395 12.2695L5.80083 11.7773L5.02739 12.0938L4.07817 12.4805L3.55083 11.5664L4.35942 10.9336L5.02739 10.4062L4.92192 9.5625C4.88676 9.31641 4.88676 9.14062 4.88676 9C4.88676 8.85938 4.88676 8.68359 4.92192 8.4375L5.02739 7.59375L4.35942 7.06641L3.55083 6.43359L4.07817 5.55469L5.02739 5.94141L5.80083 6.22266L6.4688 5.73047C6.7852 5.48438 7.10161 5.30859 7.41801 5.16797L8.19145 4.85156L8.33208 4.00781L8.4727 2.98828H9.52739L9.66801 4.00781L9.77348 4.85156L10.5821 5.16797C10.8985 5.30859 11.2149 5.48438 11.4961 5.73047L12.1641 6.22266L12.9727 5.90625L13.9219 5.51953L14.4493 6.43359L13.6407 7.06641L12.9727 7.59375L13.0782 8.4375ZM9.00005 6.01172C7.3477 6.01172 6.01176 7.34766 6.01176 9C6.01176 10.6523 7.3477 11.9883 9.00005 11.9883C10.6524 11.9883 11.9883 10.6523 11.9883 9C11.9883 7.34766 10.6524 6.01172 9.00005 6.01172ZM9.00005 10.5117C8.19145 10.5117 7.48833 9.80859 7.48833 9C7.48833 8.19141 8.19145 7.48828 9.00005 7.48828C9.80864 7.48828 10.5118 8.19141 10.5118 9C10.5118 9.80859 9.80864 10.5117 9.00005 10.5117Z" fill="#A1A1AA"/>
</svg>
