<svg width="30" height="36" viewBox="0 0 30 36" fill="none" xmlns="http://www.w3.org/2000/svg">
<path d="M13.75 26.75H16.25V21.5312L18.25 23.5312L20 21.75L15 16.75L10 21.75L11.7812 23.5L13.75 21.5312V26.75ZM7.5 30.5C6.8125 30.5 6.22396 30.2552 5.73438 29.7656C5.24479 29.276 5 28.6875 5 28V8C5 7.3125 5.24479 6.72396 5.73438 6.23438C6.22396 5.74479 6.8125 5.5 7.5 5.5H17.5L25 13V28C25 28.6875 24.7552 29.276 24.2656 29.7656C23.776 30.2552 23.1875 30.5 22.5 30.5H7.5ZM16.25 14.25V8H7.5V28H22.5V14.25H16.25ZM7.5 8V14.25V28V8Z" fill="white" fill-opacity="0.6"/>
</svg>
