<svg width="14" height="14" viewBox="0 0 14 14" fill="none" xmlns="http://www.w3.org/2000/svg">
<path d="M11.3476 7.57422C11.3476 7.38281 11.375 7.19141 11.375 7C11.375 6.80859 11.3476 6.61719 11.3476 6.42578L12.5781 5.46875C12.6875 5.38672 12.7148 5.22266 12.6328 5.08594L11.457 3.0625C11.4023 2.98047 11.3203 2.92578 11.2109 2.92578C11.1836 2.92578 11.1289 2.92578 11.1015 2.95312L9.65231 3.52734C9.35153 3.30859 9.0234 3.08984 8.66794 2.95312L8.44919 1.42188C8.42184 1.28516 8.31247 1.17578 8.17575 1.17578H5.82419C5.68747 1.17578 5.57809 1.28516 5.55075 1.42188L5.332 2.95312C4.97653 3.08984 4.6484 3.30859 4.34762 3.52734L2.8984 2.95312C2.84372 2.92578 2.81637 2.92578 2.78903 2.92578C2.67965 2.92578 2.59762 2.98047 2.54294 3.0625L1.36715 5.08594C1.28512 5.22266 1.31247 5.38672 1.42184 5.46875L2.65231 6.42578C2.65231 6.61719 2.62497 6.80859 2.62497 7C2.62497 7.19141 2.65231 7.38281 2.65231 7.57422L1.42184 8.53125C1.31247 8.61328 1.28512 8.77734 1.36715 8.91406L2.54294 10.9375C2.59762 11.0195 2.67965 11.0742 2.78903 11.0742C2.81637 11.0742 2.87106 11.0742 2.8984 11.0469L4.34762 10.4727C4.6484 10.6914 4.97653 10.9102 5.332 11.0469L5.55075 12.5781C5.57809 12.7148 5.68747 12.8242 5.82419 12.8242H8.17575C8.31247 12.8242 8.42184 12.7148 8.44919 12.5781L8.66794 11.0469C9.0234 10.9102 9.35153 10.6914 9.65231 10.4727L11.1015 11.0469C11.1562 11.0742 11.1836 11.0742 11.2109 11.0742C11.3203 11.0742 11.4023 11.0195 11.457 10.9375L12.6328 8.91406C12.7148 8.77734 12.6875 8.61328 12.5781 8.53125L11.3476 7.57422ZM10.1718 6.5625C10.1992 6.75391 10.1992 6.89062 10.1992 7C10.1992 7.10938 10.1992 7.24609 10.1718 7.4375L10.0898 8.09375L10.6093 8.50391L11.2382 8.99609L10.8281 9.67969L10.0898 9.37891L9.48825 9.16016L8.96872 9.54297C8.72262 9.73438 8.47653 9.87109 8.23044 9.98047L7.62887 10.2266L7.5195 10.8828L7.41012 11.6758H6.58981L6.48044 10.8828L6.3984 10.2266L5.7695 9.98047C5.5234 9.87109 5.27731 9.73438 5.05856 9.54297L4.51169 9.16016L3.91012 9.40625L3.17184 9.70703L2.76169 8.99609L3.39059 8.50391L3.91012 8.09375L3.82809 7.4375C3.80075 7.24609 3.80075 7.10938 3.80075 7C3.80075 6.89062 3.80075 6.75391 3.82809 6.5625L3.91012 5.90625L3.39059 5.49609L2.76169 5.00391L3.17184 4.32031L3.91012 4.62109L4.51169 4.83984L5.03122 4.45703C5.27731 4.26562 5.5234 4.12891 5.7695 4.01953L6.37106 3.77344L6.48044 3.11719L6.58981 2.32422H7.41012L7.5195 3.11719L7.60153 3.77344L8.23044 4.01953C8.47653 4.12891 8.72262 4.26562 8.94137 4.45703L9.4609 4.83984L10.0898 4.59375L10.8281 4.29297L11.2382 5.00391L10.6093 5.49609L10.0898 5.90625L10.1718 6.5625ZM6.99997 4.67578C5.71481 4.67578 4.67575 5.71484 4.67575 7C4.67575 8.28516 5.71481 9.32422 6.99997 9.32422C8.28512 9.32422 9.32419 8.28516 9.32419 7C9.32419 5.71484 8.28512 4.67578 6.99997 4.67578ZM6.99997 8.17578C6.37106 8.17578 5.82419 7.62891 5.82419 7C5.82419 6.37109 6.37106 5.82422 6.99997 5.82422C7.62887 5.82422 8.17575 6.37109 8.17575 7C8.17575 7.62891 7.62887 8.17578 6.99997 8.17578Z" fill="#6B7280"/>
</svg>
