<svg width="14" height="14" viewBox="0 0 14 14" fill="none" xmlns="http://www.w3.org/2000/svg">
<path d="M7 3.5C9.21484 3.5 11.1836 4.73047 12.1406 6.69922C11.8125 7.41016 11.3203 8.03906 10.7461 8.53125L11.5664 9.35156C12.3594 8.64062 13.0156 7.73828 13.4258 6.69922C12.4141 4.15625 9.92578 2.32422 7 2.32422C6.26172 2.32422 5.55078 2.46094 4.86719 2.65234L5.85156 3.63672C6.20703 3.55469 6.58984 3.5 7 3.5ZM6.37109 4.15625L7.57422 5.35938C7.90234 5.52344 8.17578 5.79688 8.33984 6.125L9.54297 7.32812C9.59766 7.13672 9.625 6.91797 9.625 6.69922C9.625 5.25 8.44922 4.07422 7 4.07422C6.78125 4.07422 6.58984 4.10156 6.37109 4.15625ZM1.17578 2.26953L2.73438 3.82812C1.77734 4.56641 1.03906 5.55078 0.574219 6.69922C1.58594 9.26953 4.07422 11.0742 7 11.0742C7.875 11.0742 8.75 10.9102 9.51562 10.6094L11.5117 12.6055L12.332 11.7852L1.99609 1.42188L1.17578 2.26953ZM5.55078 6.64453L7.08203 8.14844C7.05469 8.14844 7.02734 8.17578 7 8.17578C6.20703 8.17578 5.55078 7.51953 5.55078 6.69922C5.55078 6.67188 5.55078 6.67188 5.55078 6.64453ZM3.55469 4.64844L4.59375 5.66016C4.45703 5.98828 4.375 6.34375 4.375 6.69922C4.375 8.14844 5.55078 9.32422 7 9.32422C7.35547 9.32422 7.71094 9.26953 8.03906 9.13281L8.61328 9.70703C8.09375 9.84375 7.54688 9.92578 7 9.92578C4.78516 9.92578 2.81641 8.66797 1.85938 6.69922C2.26953 5.87891 2.87109 5.19531 3.55469 4.64844Z" fill="#6B7280"/>
</svg>
