<svg width="14" height="14" viewBox="0 0 14 14" fill="none" xmlns="http://www.w3.org/2000/svg">
<path d="M9.92578 4.07422H7.57422V5.25H9.92578C10.8828 5.25 11.6758 6.04297 11.6758 7C11.6758 7.95703 10.8828 8.75 9.92578 8.75H7.57422V9.92578H9.92578C11.5391 9.92578 12.8242 8.61328 12.8242 7C12.8242 5.38672 11.5391 4.07422 9.92578 4.07422ZM6.42578 8.75H4.07422C3.11719 8.75 2.32422 7.95703 2.32422 7C2.32422 6.04297 3.11719 5.25 4.07422 5.25H6.42578V4.07422H4.07422C2.46094 4.07422 1.17578 5.38672 1.17578 7C1.17578 8.61328 2.46094 9.92578 4.07422 9.92578H6.42578V8.75ZM4.67578 6.42578H9.32422V7.57422H4.67578V6.42578Z" fill="#6B7280"/>
</svg>
