<svg width="16" height="16" viewBox="0 0 16 16" fill="none" xmlns="http://www.w3.org/2000/svg">
<path d="M12.9687 8.65625C12.9687 8.4375 12.9999 8.21875 12.9999 8C12.9999 7.78125 12.9687 7.5625 12.9687 7.34375L14.3749 6.25C14.4999 6.15625 14.5312 5.96875 14.4374 5.8125L13.0937 3.5C13.0312 3.40625 12.9374 3.34375 12.8124 3.34375C12.7812 3.34375 12.7187 3.34375 12.6874 3.375L11.0312 4.03125C10.6874 3.78125 10.3124 3.53125 9.90619 3.375L9.65619 1.625C9.62494 1.46875 9.49995 1.34375 9.3437 1.34375H6.6562C6.49995 1.34375 6.37495 1.46875 6.3437 1.625L6.0937 3.375C5.68745 3.53125 5.31244 3.78125 4.96869 4.03125L3.31244 3.375C3.24994 3.34375 3.21869 3.34375 3.18744 3.34375C3.06244 3.34375 2.96869 3.40625 2.90619 3.5L1.56244 5.8125C1.46869 5.96875 1.49994 6.15625 1.62494 6.25L3.03119 7.34375C3.03119 7.5625 2.99994 7.78125 2.99994 8C2.99994 8.21875 3.03119 8.4375 3.03119 8.65625L1.62494 9.75C1.49994 9.84375 1.46869 10.0312 1.56244 10.1875L2.90619 12.5C2.96869 12.5938 3.06244 12.6562 3.18744 12.6562C3.21869 12.6562 3.28119 12.6562 3.31244 12.625L4.96869 11.9688C5.31244 12.2188 5.68745 12.4688 6.0937 12.625L6.3437 14.375C6.37495 14.5312 6.49995 14.6562 6.6562 14.6562H9.3437C9.49995 14.6562 9.62494 14.5312 9.65619 14.375L9.90619 12.625C10.3124 12.4688 10.6874 12.2188 11.0312 11.9688L12.6874 12.625C12.7499 12.6562 12.7812 12.6562 12.8124 12.6562C12.9374 12.6562 13.0312 12.5938 13.0937 12.5L14.4374 10.1875C14.5312 10.0312 14.4999 9.84375 14.3749 9.75L12.9687 8.65625ZM11.6249 7.5C11.6562 7.71875 11.6562 7.875 11.6562 8C11.6562 8.125 11.6562 8.28125 11.6249 8.5L11.5312 9.25L12.1249 9.71875L12.8437 10.2812L12.3749 11.0625L11.5312 10.7188L10.8437 10.4688L10.2499 10.9062C9.96869 11.125 9.68745 11.2812 9.4062 11.4062L8.7187 11.6875L8.5937 12.4375L8.4687 13.3438H7.5312L7.4062 12.4375L7.31245 11.6875L6.5937 11.4062C6.31245 11.2812 6.0312 11.125 5.7812 10.9062L5.15619 10.4688L4.46869 10.75L3.62494 11.0938L3.15619 10.2812L3.87494 9.71875L4.46869 9.25L4.37494 8.5C4.34369 8.28125 4.34369 8.125 4.34369 8C4.34369 7.875 4.34369 7.71875 4.37494 7.5L4.46869 6.75L3.87494 6.28125L3.15619 5.71875L3.62494 4.9375L4.46869 5.28125L5.15619 5.53125L5.74995 5.09375C6.0312 4.875 6.31245 4.71875 6.5937 4.59375L7.2812 4.3125L7.4062 3.5625L7.5312 2.65625H8.4687L8.5937 3.5625L8.68745 4.3125L9.4062 4.59375C9.68745 4.71875 9.96869 4.875 10.2187 5.09375L10.8124 5.53125L11.5312 5.25L12.3749 4.90625L12.8437 5.71875L12.1249 6.28125L11.5312 6.75L11.6249 7.5ZM7.99995 5.34375C6.5312 5.34375 5.34369 6.53125 5.34369 8C5.34369 9.46875 6.5312 10.6562 7.99995 10.6562C9.4687 10.6562 10.6562 9.46875 10.6562 8C10.6562 6.53125 9.4687 5.34375 7.99995 5.34375ZM7.99995 9.34375C7.2812 9.34375 6.6562 8.71875 6.6562 8C6.6562 7.28125 7.2812 6.65625 7.99995 6.65625C8.7187 6.65625 9.3437 7.28125 9.3437 8C9.3437 8.71875 8.7187 9.34375 7.99995 9.34375Z" fill="#6B7280"/>
</svg>
