<svg width="14" height="14" viewBox="0 0 14 14" fill="none" xmlns="http://www.w3.org/2000/svg">
<path d="M9.05078 8.17578H8.58594L8.42188 8.01172C8.99609 7.35547 9.32422 6.48047 9.32422 5.55078C9.32422 3.44531 7.62891 1.75 5.55078 1.75C3.44531 1.75 1.75 3.44531 1.75 5.55078C1.75 7.62891 3.44531 9.32422 5.55078 9.32422C6.48047 9.32422 7.35547 8.99609 8.01172 8.42188L8.17578 8.58594V9.05078L11.0742 11.9492L11.9492 11.0742L9.05078 8.17578ZM5.55078 8.17578C4.10156 8.17578 2.92578 7 2.92578 5.55078C2.92578 4.10156 4.10156 2.92578 5.55078 2.92578C7 2.92578 8.17578 4.10156 8.17578 5.55078C8.17578 7 7 8.17578 5.55078 8.17578Z" fill="#6B7280"/>
</svg>
