<svg width="20" height="20" viewBox="0 0 20 20" fill="none" xmlns="http://www.w3.org/2000/svg">
<path d="M11.4844 12.6562L13.2422 10.8594L18.2422 15.8594L16.4844 17.6562L11.4844 12.6562ZM14.5703 8.32031C16.2109 8.32031 17.5 7.03125 17.5 5.42969C17.5 4.92188 17.3828 4.49219 17.1484 4.10156L14.9219 6.32812L13.6719 5.07812L15.8984 2.85156C15.5078 2.61719 15.0781 2.5 14.5703 2.5C12.9688 2.5 11.6797 3.78906 11.6797 5.42969C11.6797 5.74219 11.7188 6.09375 11.8359 6.36719L10.3125 7.92969L8.82812 6.44531L9.41406 5.85938L8.24219 4.6875L10 2.89062C9.02344 1.91406 7.46094 1.91406 6.48438 2.89062L3.51562 5.85938L4.6875 7.03125H2.34375L1.75781 7.61719L4.6875 10.5859L5.27344 10V7.61719L6.48438 8.78906L7.07031 8.20312L8.55469 9.6875L2.38281 15.8594L4.14062 17.6172L13.6328 8.16406C13.9062 8.28125 14.2578 8.32031 14.5703 8.32031Z" fill="#A1A1AA"/>
</svg>
