<svg width="24" height="24" viewBox="0 0 24 24" fill="none" xmlns="http://www.w3.org/2000/svg">
<path d="M6.98438 15.9844C7.54688 15.9844 8.01562 16.4531 8.01562 17.0156C8.01562 18.0938 7.07812 18.9844 6 18.9844C5.8125 18.9844 5.67188 18.9844 5.48438 18.9375C5.8125 18.4219 6 17.7188 6 17.0156C6 16.4531 6.46875 15.9844 6.98438 15.9844ZM18.6562 3C18.4219 3 18.1406 3.09375 17.9531 3.28125L9 12.2344L11.7656 15L20.7188 6.04688C21.0938 5.67188 21.0938 5.01562 20.7188 4.64062L19.3594 3.28125C19.1719 3.09375 18.9375 3 18.6562 3ZM6.98438 14.0156C5.34375 14.0156 3.98438 15.3281 3.98438 17.0156C3.98438 18.3281 2.85938 18.9844 2.01562 18.9844C2.90625 20.2031 4.5 21 6 21C8.20312 21 9.98438 19.2188 9.98438 17.0156C9.98438 15.3281 8.67188 14.0156 6.98438 14.0156Z" fill="#FAFAFA"/>
</svg>
