<svg width="20" height="20" viewBox="0 0 20 20" fill="none" xmlns="http://www.w3.org/2000/svg">
<path d="M16.6797 1.67969H3.32031C2.5 1.67969 1.67969 2.42188 1.67969 3.32031V5.85938C1.67969 6.44531 2.03125 6.95312 2.5 7.26562V16.6797C2.5 17.5781 3.39844 18.3203 4.17969 18.3203H15.8203C16.6016 18.3203 17.5 17.5781 17.5 16.6797V7.26562C17.9688 6.95312 18.3203 6.44531 18.3203 5.85938V3.32031C18.3203 2.42188 17.5 1.67969 16.6797 1.67969ZM15.8203 16.6797H4.17969V7.5H15.8203V16.6797ZM16.6797 5.82031H3.32031V3.32031H16.6797V5.82031ZM7.5 10H12.5V11.6797H7.5V10Z" fill="#A1A1AA"/>
</svg>
