<svg width="36" height="36" viewBox="0 0 36 36" fill="none" xmlns="http://www.w3.org/2000/svg">
<path d="M18 8.85938C19.7578 8.85938 21.1641 10.2656 21.1641 12.0234C21.1641 13.7109 19.7578 15.1172 18 15.1172C16.2422 15.1172 14.8359 13.7109 14.8359 12.0234C14.8359 10.2656 16.2422 8.85938 18 8.85938ZM18 22.3594C22.4297 22.3594 27.1406 24.5391 27.1406 25.5234V27.1406H8.85938V25.5234C8.85938 24.5391 13.5703 22.3594 18 22.3594ZM18 5.97656C14.6953 5.97656 12.0234 8.71875 12.0234 12.0234C12.0234 15.3281 14.6953 18 18 18C21.3047 18 23.9766 15.3281 23.9766 12.0234C23.9766 8.71875 21.3047 5.97656 18 5.97656ZM18 19.4766C13.9922 19.4766 5.97656 21.5156 5.97656 25.5234V30.0234H30.0234V25.5234C30.0234 21.5156 22.0078 19.4766 18 19.4766Z" fill="#A1A1AA"/>
</svg>
