<svg width="18" height="22" viewBox="0 0 18 22" fill="none" xmlns="http://www.w3.org/2000/svg">
<path d="M4.5 17.75C3.875 17.75 3.34375 17.5312 2.90625 17.0938C2.46875 16.6562 2.25 16.125 2.25 15.5V11C2.25 10.7 2.30625 10.4125 2.41875 10.1375C2.53125 9.8625 2.69375 9.61875 2.90625 9.40625L7.40625 4.90625C7.61875 4.68125 7.86563 4.51562 8.14688 4.40937C8.42813 4.30312 8.7125 4.25 9 4.25C9.2875 4.25 9.56875 4.30312 9.84375 4.40937C10.1188 4.51562 10.3688 4.68125 10.5938 4.90625L15.0938 9.40625C15.3063 9.61875 15.4688 9.8625 15.5813 10.1375C15.6938 10.4125 15.75 10.7 15.75 11V15.5C15.75 16.125 15.5313 16.6562 15.0938 17.0938C14.6563 17.5312 14.125 17.75 13.5 17.75H4.5ZM4.5 16.25H13.5C13.7125 16.25 13.8906 16.1781 14.0344 16.0344C14.1781 15.8906 14.25 15.7125 14.25 15.5V11C14.25 10.9 14.2313 10.8062 14.1938 10.7187C14.1562 10.6312 14.1 10.55 14.025 10.475L11.1562 7.5875L10.05 8.675L12.75 11.375V14.75H5.25V11.375L10.0875 6.5375L9.525 5.975C9.425 5.875 9.32813 5.8125 9.23438 5.7875C9.14063 5.7625 9.0625 5.75 9 5.75C8.9375 5.75 8.85938 5.7625 8.76563 5.7875C8.67188 5.8125 8.575 5.875 8.475 5.975L3.975 10.475C3.9 10.55 3.84375 10.6312 3.80625 10.7187C3.76875 10.8062 3.75 10.9 3.75 11V15.5C3.75 15.7125 3.82188 15.8906 3.96563 16.0344C4.10938 16.1781 4.2875 16.25 4.5 16.25ZM6.75 13.25H11.25V11.9937L9 9.74375L6.75 11.9937V13.25Z" fill="#A1A1AA"/>
</svg>
