<svg width="18" height="22" viewBox="0 0 18 22" fill="none" xmlns="http://www.w3.org/2000/svg">
<path d="M8.25 16.25H9.75V13.1187L10.95 14.3187L12 13.25L9 10.25L6 13.25L7.06875 14.3L8.25 13.1187V16.25ZM4.5 18.5C4.0875 18.5 3.73438 18.3531 3.44063 18.0594C3.14687 17.7656 3 17.4125 3 17V5C3 4.5875 3.14687 4.23437 3.44063 3.94062C3.73438 3.64687 4.0875 3.5 4.5 3.5H10.5L15 8V17C15 17.4125 14.8531 17.7656 14.5594 18.0594C14.2656 18.3531 13.9125 18.5 13.5 18.5H4.5ZM9.75 8.75V5H4.5V17H13.5V8.75H9.75ZM4.5 5V8.75V17V5Z" fill="#A1A1AA"/>
</svg>
